<svg width="71" height="52" viewBox="0 0 71 52" fill="none" xmlns="http://www.w3.org/2000/svg">
<path d="M32.6345 34.6667H38.4122V40.4444H32.6345V34.6667ZM32.6345 11.5556H38.4122V28.8889H32.6345V11.5556ZM35.5233 0C28.6277 0 22.0145 2.73928 17.1386 7.61522C12.2626 12.4912 9.52335 19.1044 9.52335 26C9.52335 32.8956 12.2626 39.5088 17.1386 44.3848C22.0145 49.2607 28.6277 52 35.5233 52C42.419 52 49.0322 49.2607 53.9081 44.3848C58.7841 39.5088 61.5233 32.8956 61.5233 26C61.5233 19.1044 58.7841 12.4912 53.9081 7.61522C49.0322 2.73928 42.419 0 35.5233 0ZM35.5233 46.2222C24.3722 46.2222 15.3011 37.1511 15.3011 26C15.3011 14.8489 24.3722 5.77778 35.5233 5.77778C46.6745 5.77778 55.7456 14.8489 55.7456 26C55.7456 37.1511 46.6745 46.2222 35.5233 46.2222ZM60.0789 50.5556C66.3189 44.2289 70.19 35.5622 70.19 26C70.19 16.4378 66.3189 7.77111 60.0789 1.44444L56.9589 4.56444C62.4478 10.1111 65.8567 17.6511 65.8567 26C65.8567 34.3778 62.4478 41.8889 56.9589 47.4356L60.0789 50.5556ZM14.0878 47.4356C8.59891 41.8889 5.19002 34.3778 5.19002 26C5.19002 17.6511 8.59891 10.1111 14.0878 4.56444L10.9678 1.44444C4.7278 7.77111 0.856689 16.4378 0.856689 26C0.856689 35.5622 4.7278 44.2289 10.9678 50.5556L14.0878 47.4356Z" fill="#CCCCCC"/>
</svg>
