<svg width="25" height="31" viewBox="0 0 25 31" fill="none" xmlns="http://www.w3.org/2000/svg">
<path d="M3.86729 0C2.17667 0 0.483939 1.5834 0.483939 4.7502L3.86729 13.195L7.24852 4.7502C7.24852 1.5834 5.5579 0 3.86729 0ZM18.7817 2.57302C18.4172 2.59216 18.0632 2.67858 17.7673 2.75775L17.9681 3.91891C18.2639 3.83644 18.5704 3.78432 18.8292 3.76057L18.7817 2.57302ZM3.86729 2.639C4.80241 2.639 5.5579 3.58442 5.5579 4.7502C5.5579 5.91795 4.80241 6.8614 3.86729 6.8614C2.93375 6.8614 2.17667 5.91795 2.17667 4.7502C2.17667 3.58442 2.93375 2.639 3.86729 2.639ZM19.8331 2.65219L19.6746 3.81995C19.9334 3.8879 20.1923 3.97301 20.4195 4.14323L20.8791 3.10082C20.5568 2.8864 20.1976 2.69376 19.8331 2.65219ZM16.7952 3.09423C16.4729 3.25125 16.1507 3.39177 15.876 3.52966L16.2511 4.61825C16.5416 4.46387 16.8481 4.32928 17.1069 4.2158L16.7952 3.09423ZM21.7456 3.97829L21.0218 4.7502C21.212 5.02201 21.3599 5.35717 21.4761 5.62766L22.3267 5.09327C22.1471 4.66113 21.9886 4.3339 21.7456 3.97829ZM14.9937 4.03767C14.6714 4.24285 14.4072 4.4256 14.1219 4.60505L14.5869 5.64746C14.8616 5.44953 15.1627 5.2582 15.4057 5.10646L14.9937 4.03767ZM13.2872 5.21862C13.0072 5.42314 12.7325 5.62766 12.463 5.85198L12.9808 6.8416C13.2396 6.63048 13.5091 6.43256 13.7732 6.23463L13.2872 5.21862ZM22.6543 6.39957C22.3426 6.46555 22.0256 6.51173 21.7139 6.55791C21.735 6.88779 21.7191 7.24405 21.6663 7.52115L22.5909 7.79164C22.6437 7.31662 22.6913 6.82841 22.6543 6.39957ZM11.66 6.51173C11.3958 6.73604 11.1369 6.96696 10.8728 7.19127L11.4222 8.1611C11.6758 7.93019 11.9347 7.71247 12.1936 7.48816L11.66 6.51173ZM10.0962 7.9038C9.832 8.14131 9.55727 8.40521 9.33009 8.62293L9.90596 9.56637C10.1965 9.30247 10.3973 9.10454 10.6615 8.86044L10.0962 7.9038ZM21.3493 8.4316C21.1908 8.73508 21.0059 9.03857 20.821 9.26948L21.5131 10.0942C21.7403 9.7577 21.9833 9.41463 22.1524 9.07156L21.3493 8.4316ZM8.5746 9.36185C8.31572 9.61255 8.05685 9.86985 7.82967 10.1074L8.43195 11.0244C8.68026 10.7671 8.93386 10.5032 9.16631 10.2921L8.5746 9.36185ZM20.1659 10.0282C19.9229 10.2723 19.6693 10.5098 19.4368 10.7077L19.981 11.6842C20.261 11.4467 20.5357 11.1894 20.7735 10.9518L20.1659 10.0282ZM7.09531 10.8793C6.847 11.13 6.60926 11.3939 6.36623 11.6512L6.98436 12.555C7.22211 12.2977 7.45985 12.0404 7.70287 11.7897L7.09531 10.8793ZM18.6602 11.3411C18.3907 11.539 18.1107 11.7435 17.8571 11.9151L18.3115 12.9641C18.5968 12.7464 18.9191 12.555 19.1568 12.3571L18.6602 11.3411ZM5.64243 12.4363C5.40469 12.7002 5.17223 12.9641 4.93449 13.2346L5.57375 14.1186C5.80621 13.8547 6.04396 13.5908 6.27642 13.3269L5.64243 12.4363ZM17.0277 12.4627C16.7477 12.6342 16.4677 12.8123 16.1877 12.9839L16.5945 14.0527C16.922 13.8547 17.165 13.6898 17.4609 13.5183L17.0277 12.4627ZM15.3371 13.4787C15.0465 13.6436 14.7665 13.802 14.4706 13.9537L14.8563 15.0423C15.1469 14.884 15.4374 14.719 15.728 14.5541L15.3371 13.4787ZM4.23711 14.0527C3.96767 14.3496 3.78011 14.5805 3.53445 14.8774L4.20541 15.735C4.45372 15.4381 4.65448 15.1808 4.88694 14.9301L4.23711 14.0527ZM13.6042 14.4353C13.3136 14.5871 13.023 14.7454 12.7325 14.8971L13.1023 15.9989C13.3981 15.8472 13.6887 15.6888 13.9793 15.5305L13.6042 14.4353ZM11.8555 15.359C11.5649 15.5173 11.2743 15.6756 10.9784 15.8208L11.3483 16.9226C11.6388 16.7708 11.9347 16.6125 12.2253 16.4608L11.8555 15.359ZM21.6188 15.834C19.9282 15.834 18.2375 17.4174 18.2375 20.5842L21.6188 29.029L25 20.5842C25 17.4174 23.3094 15.834 21.6188 15.834ZM10.1014 16.2826C9.8003 16.4542 9.48331 16.6125 9.22443 16.751L9.59954 17.8462C9.91124 17.6813 10.2071 17.5229 10.4713 17.3778L10.1014 16.2826ZM8.34742 17.2195C8.06213 17.3844 7.72929 17.5691 7.4757 17.7143L7.86665 18.7963C8.17836 18.6247 8.45309 18.4532 8.72781 18.3081L8.34742 17.2195ZM6.60397 18.2091C6.30811 18.3872 6.00169 18.572 5.73753 18.7369L6.16547 19.7991C6.45076 19.6144 6.74662 19.4428 7.0055 19.2845L6.60397 18.2091ZM21.6188 18.473C22.5539 18.473 23.3094 19.4164 23.3094 20.5842C23.3094 21.7519 22.5539 22.6954 21.6188 22.6954C20.6836 22.6954 19.9282 21.7519 19.9282 20.5842C19.9282 19.4164 20.6836 18.473 21.6188 18.473ZM4.88166 19.2845C4.60165 19.4758 4.32164 19.6737 4.03635 19.8783L4.51183 20.9075C4.78128 20.7095 5.056 20.5248 5.33073 20.3401L4.88166 19.2845ZM3.20689 20.5182C2.9105 20.7293 2.62415 21.013 2.37743 21.2175L2.9533 22.1676C3.21587 21.9301 3.49852 21.686 3.72464 21.5144L3.20689 20.5182ZM1.62722 22.0092C1.37363 22.2995 1.12373 22.636 0.929839 22.9197L1.65363 23.6916C1.85704 23.3815 2.03402 23.1506 2.27177 22.8867L1.62722 22.0092ZM13.134 22.095L13.2185 23.276C13.4932 23.2166 13.768 23.2562 14.0427 23.309L14.2065 22.1412C13.8578 22.0752 13.488 22.029 13.134 22.095ZM11.1686 22.7548L11.5279 23.8565C11.8026 23.7048 12.0879 23.586 12.3785 23.4739C12.2781 23.0978 12.2041 22.7152 12.1249 22.3325C11.7921 22.4513 11.4592 22.6096 11.1686 22.7548ZM15.2631 22.6954L14.7242 23.6718C14.9461 23.8763 15.1627 24.0941 15.3371 24.3646L16.0556 23.586C15.7861 23.243 15.5801 22.9197 15.2631 22.6954ZM10.2705 23.2892C9.97992 23.4739 9.69992 23.685 9.41991 23.8895L9.90068 24.9121C10.1754 24.7274 10.4448 24.5097 10.7143 24.3316L10.2705 23.2892ZM0.349218 24.0149C0.189666 24.4437 0.0602282 24.9055 0 25.3146L0.935122 25.5191C0.992181 25.1431 1.07407 24.8726 1.194 24.5493C0.903952 24.3909 0.627113 24.1996 0.349218 24.0149ZM8.59573 24.5295C8.32629 24.7472 8.06213 24.9649 7.79797 25.1892L8.32629 26.1789C8.59045 25.9611 8.84932 25.7368 9.11348 25.5191L8.59573 24.5295ZM16.6631 24.6087L15.8654 25.2552C16.0344 25.5719 16.1982 25.9018 16.3514 26.2382L17.1756 25.6445C16.9907 25.275 16.8586 24.9451 16.6631 24.6087ZM7.01078 25.8622C6.74662 26.0799 6.48246 26.291 6.22358 26.5219L6.7519 27.5116C7.00549 27.2806 7.27494 27.0629 7.54438 26.8386L7.01078 25.8622ZM0.945689 26.4889C0.639793 26.5681 0.331255 26.6341 0.0237743 26.7067C0.0792477 27.1685 0.227705 27.6171 0.361898 27.9734L1.22041 27.4588C1.10577 27.1289 0.996936 26.7858 0.945689 26.4889ZM17.6458 26.6737L16.8216 27.2675C16.9854 27.6237 17.1756 28.0064 17.3288 28.3099L18.1266 27.6699C17.947 27.3202 17.7937 26.9904 17.6458 26.6737ZM5.44167 27.1685C5.17752 27.373 4.91864 27.5709 4.64391 27.7623L5.11412 28.7981C5.39412 28.5935 5.67413 28.389 5.94358 28.1713L5.44167 27.1685ZM1.67477 28.2439L1.02494 29.1147C1.31868 29.4644 1.68111 29.6953 2.07629 29.8009L2.28762 28.6463C2.05304 28.587 1.83379 28.4418 1.67477 28.2439ZM3.84087 28.2637C3.57618 28.4154 3.30146 28.5342 3.01669 28.6067L3.2333 29.7679C3.57248 29.6821 3.89159 29.5238 4.21069 29.3589L3.84087 28.2637ZM18.6496 28.5804L17.9153 29.3259C18.1424 29.6755 18.4224 30.012 18.6655 30.2495L19.2519 29.3127C19.0194 29.0884 18.8187 28.8179 18.6496 28.5804ZM19.9229 29.7349L19.6851 30.8895C20.1025 30.995 20.4142 31.028 20.8052 30.9752L20.6889 29.7943C20.4301 29.8471 20.1765 29.8141 19.9229 29.7349Z" fill="black"/>
</svg>
