<svg width="28" height="20" viewBox="0 0 28 20" fill="none" xmlns="http://www.w3.org/2000/svg">
<path d="M13.6288 5.18853L4.66704 11.9683V19.2856C4.66704 19.4751 4.74897 19.6568 4.89482 19.7908C5.04067 19.9247 5.23849 20 5.44475 20L10.8917 19.9871C11.0973 19.9861 11.2941 19.9104 11.4391 19.7766C11.5841 19.6427 11.6655 19.4615 11.6655 19.2727V14.9994C11.6655 14.81 11.7475 14.6283 11.8933 14.4943C12.0392 14.3603 12.237 14.2851 12.4432 14.2851H15.5541C15.7604 14.2851 15.9582 14.3603 16.104 14.4943C16.2499 14.6283 16.3318 14.81 16.3318 14.9994V19.2696C16.3315 19.3636 16.3514 19.4567 16.3903 19.5436C16.4293 19.6306 16.4865 19.7096 16.5588 19.7761C16.631 19.8427 16.7169 19.8955 16.8114 19.9316C16.9059 19.9676 17.0072 19.9862 17.1096 19.9862L22.5545 20C22.7608 20 22.9586 19.9247 23.1045 19.7908C23.2503 19.6568 23.3323 19.4751 23.3323 19.2856V11.9634L14.3725 5.18853C14.2671 5.11054 14.1359 5.06801 14.0006 5.06801C13.8653 5.06801 13.7341 5.11054 13.6288 5.18853ZM27.7847 9.79663L23.7211 6.71995V0.535774C23.7211 0.393678 23.6597 0.257402 23.5503 0.156925C23.4409 0.0564476 23.2925 0 23.1378 0H20.4158C20.2611 0 20.1128 0.0564476 20.0034 0.156925C19.894 0.257402 19.8325 0.393678 19.8325 0.535774V3.77765L15.4807 0.488894C15.0631 0.173224 14.539 0.000631028 13.9982 0.000631028C13.4573 0.000631028 12.9333 0.173224 12.5157 0.488894L0.211684 9.79663C0.15262 9.84147 0.103754 9.89656 0.0678782 9.95876C0.0320021 10.021 0.00981906 10.089 0.00259668 10.1591C-0.0046257 10.2292 0.0032541 10.2999 0.0257858 10.3671C0.0483176 10.4344 0.0850596 10.497 0.133913 10.5512L1.3734 11.9353C1.42212 11.9897 1.48205 12.0347 1.54975 12.0678C1.61745 12.101 1.69159 12.1215 1.76794 12.1282C1.84429 12.135 1.92134 12.1279 1.99468 12.1072C2.06802 12.0866 2.13621 12.0529 2.19535 12.008L13.6288 3.35796C13.7341 3.27998 13.8653 3.23745 14.0006 3.23745C14.1359 3.23745 14.2671 3.27998 14.3725 3.35796L25.8064 12.008C25.8654 12.0529 25.9335 12.0867 26.0067 12.1074C26.08 12.1281 26.1569 12.1353 26.2332 12.1287C26.3095 12.122 26.3836 12.1016 26.4513 12.0687C26.5191 12.0357 26.579 11.9909 26.6278 11.9366L27.8673 10.5525C27.9161 10.498 27.9527 10.4351 27.975 10.3675C27.9973 10.3 28.0048 10.229 27.9971 10.1588C27.9894 10.0886 27.9667 10.0204 27.9302 9.95824C27.8938 9.89609 27.8443 9.84117 27.7847 9.79663Z" fill="black"/>
</svg>
