<svg width="20" height="20" viewBox="0 0 20 20" fill="none" xmlns="http://www.w3.org/2000/svg">
<path d="M10 0C15.5 0 20 4.5 20 10C20 15.5 15.5 20 10 20C4.5 20 0 15.5 0 10C0 4.5 4.5 0 10 0ZM12.92 10.81C11.84 10.81 10.95 11.56 10.71 12.56C10.17 12.33 9.66 12.39 9.29 12.55C9.05 11.55 8.15 10.81 7.08 10.81C5.83 10.81 4.82 11.82 4.82 13.07C4.82 14.32 5.83 15.33 7.08 15.33C8.28 15.33 9.24 14.42 9.33 13.25C9.53 13.12 10.04 12.86 10.67 13.26C10.7122 13.8457 10.9808 14.392 11.419 14.7829C11.8573 15.1738 12.4305 15.3786 13.0172 15.3539C13.6039 15.3292 14.1579 15.0768 14.5617 14.6505C14.9655 14.2241 15.1872 13.6572 15.18 13.07C15.18 11.82 14.17 10.81 12.92 10.81ZM7.08 11.45C8 11.45 8.7 12.18 8.7 13.07C8.7 13.96 8 14.69 7.08 14.69C6.19 14.69 5.46 13.96 5.46 13.07C5.46 12.18 6.19 11.45 7.08 11.45ZM12.92 11.45C13.81 11.45 14.54 12.18 14.54 13.07C14.54 13.96 13.81 14.69 12.92 14.69C12 14.69 11.3 13.96 11.3 13.07C11.3 12.18 12 11.45 12.92 11.45ZM15.83 9.5H4.17V10.17H15.83V9.5ZM12.15 4.89C12.0819 4.74411 11.9637 4.62752 11.8168 4.56145C11.67 4.49538 11.5044 4.48422 11.35 4.53L10 5L8.65 4.53L8.61 4.5C8.45263 4.46618 8.28834 4.48998 8.14703 4.56706C8.00572 4.64414 7.89677 4.76938 7.84 4.92L6.36 8.83H13.64L12.16 4.92L12.15 4.89Z" fill="black"/>
</svg>
