<svg width="30" height="27" viewBox="0 0 30 27" fill="none" xmlns="http://www.w3.org/2000/svg">
<g id="Group">
<path id="Vector" fill-rule="evenodd" clip-rule="evenodd" d="M0 13.1949V7.91697C0 4.18544 -8.87192e-08 2.31835 1.30836 1.15984C2.61523 -7.8648e-08 4.7214 0 8.93077 0H20.8385C25.0478 0 27.154 -7.8648e-08 28.4609 1.15984C29.7692 2.31835 29.7692 4.18544 29.7692 7.91697V13.1949C29.7692 16.9265 29.7692 18.7936 28.4609 19.9521C27.4993 20.8058 26.1061 21.0314 23.7603 21.0908C23.7554 20.091 23.3509 19.1252 22.6187 18.3647C22.5757 18.3202 22.5496 18.2648 22.5442 18.2064C22.4541 17.2026 21.9635 16.2602 21.1605 15.5481C20.3574 14.836 19.2945 14.4007 18.1622 14.3205C18.0963 14.3158 18.0338 14.2927 17.9836 14.2545C17.1191 13.6014 16.0204 13.2428 14.8846 13.2428C13.7488 13.2428 12.6501 13.6014 11.7856 14.2545C11.7355 14.2927 11.6729 14.3158 11.607 14.3205C10.4745 14.4004 9.4112 14.8355 8.60785 15.5477C7.80451 16.2598 7.31371 17.2024 7.2235 18.2064C7.21821 18.2648 7.19216 18.3202 7.14908 18.3647C6.41742 19.1253 6.01347 20.0912 6.00892 21.0908C3.6631 21.0314 2.2699 20.8058 1.30836 19.9521C-8.87192e-08 18.7936 0 16.9265 0 13.1949ZM9.30289 5.27798C9.30289 5.01551 9.4205 4.7638 9.62986 4.57821C9.83921 4.39262 10.1232 4.28836 10.4192 4.28836H19.35C19.6461 4.28836 19.93 4.39262 20.1394 4.57821C20.3487 4.7638 20.4663 5.01551 20.4663 5.27798C20.4663 5.54044 20.3487 5.79216 20.1394 5.97775C19.93 6.16333 19.6461 6.2676 19.35 6.2676H10.4192C10.1232 6.2676 9.83921 6.16333 9.62986 5.97775C9.4205 5.79216 9.30289 5.54044 9.30289 5.27798ZM7.44231 8.90659C7.14623 8.90659 6.86229 9.01085 6.65293 9.19644C6.44358 9.38203 6.32596 9.63374 6.32596 9.89621C6.32596 10.1587 6.44358 10.4104 6.65293 10.596C6.86229 10.7816 7.14623 10.8858 7.44231 10.8858H22.3269C22.623 10.8858 22.9069 10.7816 23.1163 10.596C23.3257 10.4104 23.4433 10.1587 23.4433 9.89621C23.4433 9.63374 23.3257 9.38203 23.1163 9.19644C22.9069 9.01085 22.623 8.90659 22.3269 8.90659H7.44231Z" fill="#00B834"/>
<path id="Vector_2" fill-rule="evenodd" clip-rule="evenodd" d="M16.5366 15.7614C16.0759 15.4128 15.4901 15.2214 14.8844 15.2214C14.2787 15.2214 13.6929 15.4128 13.2322 15.7614C12.8246 16.0693 12.3178 16.2553 11.7839 16.2931C11.1803 16.3357 10.6136 16.5677 10.1856 16.9474C9.75753 17.3271 9.49622 17.8296 9.44855 18.3647C9.40687 18.8371 9.19551 19.2857 8.8487 19.6486C8.45634 20.0568 8.24084 20.5756 8.24084 21.1119C8.24084 21.6482 8.45634 22.167 8.8487 22.5752C9.197 22.9368 9.40687 23.3867 9.44855 23.8591C9.49626 24.3944 9.75779 24.8971 10.1861 25.2768C10.6145 25.6566 11.1815 25.8884 11.7854 25.9307C12.3183 25.9676 12.8259 26.1537 13.2337 26.4611C13.6942 26.809 14.2794 27 14.8844 27C15.4894 27 16.0746 26.809 16.5351 26.4611C16.9427 26.1532 17.4495 25.9671 17.9834 25.9294C18.587 25.8871 19.1539 25.6555 19.5822 25.276C20.0105 24.8966 20.2722 24.3942 20.3203 23.8591C20.3625 23.386 20.5718 22.9367 20.9186 22.5752C21.3114 22.1669 21.5271 21.6479 21.5271 21.1112C21.5271 20.5746 21.3114 20.0556 20.9186 19.6473C20.5713 19.2859 20.3614 18.8366 20.3188 18.3634C20.2708 17.8285 20.0093 17.3263 19.5813 16.9469C19.1533 16.5674 18.5868 16.3357 17.9834 16.2931C17.4495 16.2553 16.9442 16.0693 16.5366 15.7614ZM17.8792 20.5155C17.9879 20.4271 18.0759 20.3206 18.1379 20.2019C18.1999 20.0833 18.2347 19.9549 18.2405 19.8243C18.2462 19.6936 18.2226 19.5632 18.1712 19.4407C18.1197 19.3181 18.0414 19.2058 17.9407 19.1103C17.84 19.0148 17.7189 18.9378 17.5845 18.884C17.45 18.8302 17.3049 18.8005 17.1575 18.7967C17.01 18.7929 16.8632 18.815 16.7255 18.8618C16.5877 18.9086 16.4618 18.9791 16.355 19.0693L13.9288 21.0776L13.4138 20.6527C13.1969 20.4765 12.9103 20.3833 12.6163 20.3934C12.3223 20.4035 12.0447 20.5161 11.8438 20.7067C11.643 20.8973 11.5351 21.1504 11.5437 21.4111C11.5523 21.6718 11.6766 21.919 11.8896 22.0989L13.1652 23.1545C13.372 23.3257 13.6444 23.421 13.9273 23.421C14.2103 23.421 14.4827 23.3257 14.6894 23.1545L17.8792 20.5155Z" fill="#4ECB71"/>
</g>
</svg>
